{"title":"Marmaduke 2010 DVDSCR XviD FEEL-FREE","uid":5668408,"size":834981896,"categoryP":"video","categoryS":"movies","magnet":"?xt=urn:btih:6e963931416f248079ae834e45d0c0c95f71da40&amp;dn=Marmaduke+2010+DVDSCR+XviD+FEEL-FREE&amp;tr=udp%3A%2F%2Ftracker.openbittorrent.com%3A80&amp;tr=udp%3A%2F%2Fopen.demonii.com%3A1337&amp;tr=udp%3A%2F%2Ftracker.coppersurfer.tk%3A6969&amp;tr=udp%3A%2F%2Fexodus.desync.com%3A6969","seeders":0,"leechers":0,"uploader":"hiest","files":5,"time":1278236570,"description":"Genre:Comedy | Family\nLanguage:English\nIMDb:http://www.imdb.com/title/tt1392197/\nVideo Source::FTP RU :Thanks.\nAudio Source::IMAGINE CAM:Thanks.\nSubtitles: ROMANA\nEncoder: Tony2\n..........................................\nGeneral\nComplete name : Marmaduke 2010 DVDSCR XviD FEEL-FREE\nFormat : AVI\nFormat/Info : Audio Video Interleave\nFile size : 796 MiB\n...........................................\nVideo\nFormat : xvid\nCodec ID : xvid\nBit rate : 1 201 Kbps\nWidth : 720 pixels\nHeight : 304 pixels\nDisplay aspect ratio : 2.35:1\nFrame rate : 24.000 fps\nResolution : 24 bits\nBits/(Pixel*Frame) : 0.229\nStream size : 713 MiB (90%)\n............................................\nAudio\nID : 1\nFormat : MPEG Audio\nFormat version : Version 1\nFormat profile : Layer 3\nFormat settings, Mode : Joint stereo / MS Stereo\nCodec ID : 55\nCodec ID/Hint : MP3\nDuration : 1h 22mn\nBit rate mode : Constant\nBit rate : 128 Kbps\nChannel(s) : 2 channels\nSampling rate : 48.0 KHz\nResolution : 16 bits\nStream size : 76.0 MiB (10%)\nAlignment : Aligned on interleaves\nInterleave, duration : 24 ms (0.58 video frame)\nInterleave, preload duration : 24 ms\n.............................................\nPlot:\nA suburban family moves to a new neighborhood with their large yet lovable Great Dane, who has a tendency to wreak havoc in his own oblivious way\n...................................................\nScreenshots: &lt;a href=&quot;\nhttp://postimg.com/image/18000/17404.jpg&quot; rel=&quot;nofollow&quot; target=&quot;_NEW&quot;&gt;\nhttp://postimg.com/image/18000/17404.jpg&lt;/a&gt; &lt;a href=&quot;\nhttp://postimg.com/image/18000/17405.jpg&quot; rel=&quot;nofollow&quot; target=&quot;_NEW&quot;&gt;\nhttp://postimg.com/image/18000/17405.jpg&lt;/a&gt; &lt;a href=&quot;\nhttp://postimg.com/image/18000/17406.jpg&quot; rel=&quot;nofollow&quot; target=&quot;_NEW&quot;&gt;\nhttp://postimg.com/image/18000/17406.jpg&lt;/a&gt;\n........................................................","torrent":{"xt":"urn:btih:6e963931416f248079ae834e45d0c0c95f71da40","amp;dn":"Marmaduke+2010+DVDSCR+XviD+FEEL-FREE","amp;tr":["udp%3A%2F%2Ftracker.openbittorrent.com%3A80","udp%3A%2F%2Fopen.demonii.com%3A1337","udp%3A%2F%2Ftracker.coppersurfer.tk%3A6969","udp%3A%2F%2Fexodus.desync.com%3A6969"],"infoHash":"6e963931416f248079ae834e45d0c0c95f71da40","infoHashBuffer":{"type":"Buffer","data":[110,150,57,49,65,111,36,128,121,174,131,78,69,208,192,201,95,113,218,64]},"announce":[],"urlList":[]}}